<svg xmlns="http://www.w3.org/2000/svg" viewBox="0 0 64 64">
  <rect width="64" height="64" rx="14" fill="#0a0a0a"/>
  <path transform="translate(2.35 -13.35) scale(1.5)" fill="#ffffff"
        d="M28.1,26.74l-6.09,1.43c-1.12-3.97-5.98-4.8-9.48-3.8s-4.59,3.51-4.29,7c.4,4.71,6.39,5.86,10.12,4.63,1.81-.6,3.04-1.93,3.7-3.7l6.01,1.43c-.91,4-4.73,6.66-8.54,7.57-7.78,1.84-17.78-1.4-18.13-10.61-.38-9.76,9.92-13.37,18.06-11.52,3.92.89,7.68,3.47,8.65,7.56Z"/>
  <circle cx="53" cy="46" r="6" fill="#22c55e"/>
</svg>
